<?xml version="1.0" encoding="UTF-8" standalone="no" ?>
<!DOCTYPE svg PUBLIC "-//W3C//DTD SVG 1.1//EN" "http://www.w3.org/Graphics/SVG/1.1/DTD/svg11.dtd">
<svg xmlns="http://www.w3.org/2000/svg" xmlns:xlink="http://www.w3.org/1999/xlink" version="1.1" width="14910.874160176034" height="3100" viewBox="0 0 14910.87 3100" xml:space="preserve">
<desc>Created with Fabric.js 1.7.7</desc>
<defs>
</defs>
<g transform="translate(7455.44 1550)" style="">
	<g transform="translate(0 0) scale(2.69 2.69)" style="">
		<g transform="translate(-309.23 -113.5) scale(46.49 46.49)">
		<text font-family="Orbitron" font-size="16" font-weight="normal" style="stroke: rgb(0,0,0); stroke-width: 1; stroke-dasharray: none; stroke-linecap: butt; stroke-linejoin: miter; stroke-miterlimit: 10; fill: rgb(0,0,0); fill-rule: nonzero; opacity: 1;" >
			<tspan x="-52" y="5.04" fill="#000000">Rocket.Chip</tspan>
		</text>
	</g>
		<g transform="translate(-139.56 368.82) scale(9.07 7.59)">
		<text font-family="Orbitron" font-size="43" font-style="normal" font-weight="normal" style="stroke: rgb(0,0,0); stroke-width: 1; stroke-dasharray: none; stroke-linecap: butt; stroke-linejoin: miter; stroke-miterlimit: 10; fill: rgb(0,0,0); fill-rule: nonzero; opacity: 1;" >
			<tspan x="-173.5" y="13.54" style="stroke: rgb(0,0,0); stroke-width: 0; stroke-dasharray: none; stroke-linecap: butt; stroke-linejoin: miter; stroke-miterlimit: 4; fill: rgb(0,0,0); fill-rule: ; opacity: 1;">W</tspan>
			<tspan x="-122.5" y="13.54" style="stroke: rgb(0,0,0); stroke-width: 0; stroke-dasharray: none; stroke-linecap: butt; stroke-linejoin: miter; stroke-miterlimit: 4; fill: rgb(0,0,0); fill-rule: ; opacity: 1;">e</tspan>
			<tspan x="-92.5" y="13.54" style="stroke: rgb(0,0,0); stroke-width: 0; stroke-dasharray: none; stroke-linecap: butt; stroke-linejoin: miter; stroke-miterlimit: 4; fill: rgb(0,0,0); fill-rule: ; opacity: 1;">b</tspan>
			<tspan x="-63.5" y="13.54" style="stroke: rgb(0,0,0); stroke-width: 0; stroke-dasharray: none; stroke-linecap: butt; stroke-linejoin: miter; stroke-miterlimit: 4; fill: rgb(0,0,0); fill-rule: ; opacity: 1;"> </tspan>
			<tspan x="-51.5" y="13.54" style="stroke: rgb(0,0,0); stroke-width: 0; stroke-dasharray: none; stroke-linecap: butt; stroke-linejoin: miter; stroke-miterlimit: 4; fill: rgb(0,0,0); fill-rule: ; opacity: 1;">S</tspan>
			<tspan x="-16.5" y="13.54" style="stroke: rgb(0,0,0); stroke-width: 0; stroke-dasharray: none; stroke-linecap: butt; stroke-linejoin: miter; stroke-miterlimit: 4; fill: rgb(0,0,0); fill-rule: ; opacity: 1;">o</tspan>
			<tspan x="13.5" y="13.54" style="stroke: rgb(0,0,0); stroke-width: 0; stroke-dasharray: none; stroke-linecap: butt; stroke-linejoin: miter; stroke-miterlimit: 4; fill: rgb(0,0,0); fill-rule: ; opacity: 1;">l</tspan>
			<tspan x="26.5" y="13.54" style="stroke: rgb(0,0,0); stroke-width: 0; stroke-dasharray: none; stroke-linecap: butt; stroke-linejoin: miter; stroke-miterlimit: 4; fill: rgb(0,0,0); fill-rule: ; opacity: 1;">u</tspan>
			<tspan x="56.5" y="13.54" style="stroke: rgb(0,0,0); stroke-width: 0; stroke-dasharray: none; stroke-linecap: butt; stroke-linejoin: miter; stroke-miterlimit: 4; fill: rgb(0,0,0); fill-rule: ; opacity: 1;">t</tspan>
			<tspan x="74.5" y="13.54" style="stroke: rgb(0,0,0); stroke-width: 0; stroke-dasharray: none; stroke-linecap: butt; stroke-linejoin: miter; stroke-miterlimit: 4; fill: rgb(0,0,0); fill-rule: ; opacity: 1;">i</tspan>
			<tspan x="83.5" y="13.54" style="stroke: rgb(0,0,0); stroke-width: 0; stroke-dasharray: none; stroke-linecap: butt; stroke-linejoin: miter; stroke-miterlimit: 4; fill: rgb(0,0,0); fill-rule: ; opacity: 1;">o</tspan>
			<tspan x="113.5" y="13.54" style="stroke: rgb(0,0,0); stroke-width: 0; stroke-dasharray: none; stroke-linecap: butt; stroke-linejoin: miter; stroke-miterlimit: 4; fill: rgb(0,0,0); fill-rule: ; opacity: 1;">n</tspan>
			<tspan x="143.5" y="13.54" style="stroke: rgb(0,0,0); stroke-width: 0; stroke-dasharray: none; stroke-linecap: butt; stroke-linejoin: miter; stroke-miterlimit: 4; fill: rgb(0,0,0); fill-rule: ; opacity: 1;">s</tspan>
		</text>
	</g>
	<g style="stroke: rgb(0,0,0); stroke-width: 1; stroke-dasharray: none; stroke-linecap: butt; stroke-linejoin: miter; stroke-miterlimit: 10; fill: rgb(0,0,0); fill-rule: nonzero; opacity: 1;" transform="translate(1957.1049999999998 -506.68404999999984) scale(7.85 7.85)" >
	<path d="M 78.303 6.354 L 78.23 6.298 l -0.078 -0.044 c -2.037 -1.125 -4.176 -1.65 -6.732 -1.65 c -2.174 0 -4.504 0.367 -7.199 0.792 l -0.16 0.025 c -6.35 1 -13.797 5.997 -18.534 12.435 c -4.022 5.468 -6.257 15.81 -7.03 20.002 l -0.169 0.917 l -7.451 -2.102 l -1.56 1.092 L 19.262 53.978 l 16.793 5.754 l 0.513 2.667 l -3.124 20.049 l 3.169 0.166 l 11.259 -13.812 l 0.382 -2.545 l 3.958 2.681 l 12.016 -14.206 l -0.242 -2.057 l -1.672 -1.395 l 1.061 -0.608 c 2.967 -1.703 7.199 -4.429 10.508 -7.738 c 4.959 -4.959 8.285 -12.445 8.9 -20.028 c 0.061 -0.754 0.092 -1.521 0.092 -2.277 C 82.875 13.153 79.848 7.558 78.303 6.354 z M 74.102 40.817 c -1.309 1.063 -2.895 1.782 -4.66 2.157 c -1.881 0.4 -3.959 0.414 -6.105 0.055 c -2.172 -0.364 -4.4 -1.106 -6.557 -2.207 c -2.168 -1.109 -4.246 -2.576 -6.093 -4.373 c -1.546 -1.506 -2.799 -3.117 -3.749 -4.76 c -0.947 -1.636 -1.589 -3.296 -1.925 -4.912 c -0.334 -1.603 -0.363 -3.155 -0.091 -4.591 c 0.124 -0.651 0.313 -1.276 0.561 -1.872 c 0.351 -0.605 0.716 -1.175 1.099 -1.696 c 4.16 -5.654 10.462 -10.143 16.125 -11.596 c -0.25 0.079 -0.504 0.161 -0.775 0.248 l -1.064 0.396 c -0.104 0.041 -0.207 0.083 -0.309 0.128 c -0.104 0.045 -0.203 0.092 -0.303 0.141 c -0.1 0.049 -0.199 0.1 -0.295 0.154 c -0.098 0.053 -0.193 0.108 -0.287 0.167 c -1.141 0.698 -1.963 1.644 -2.467 2.758 c -0.508 1.128 -0.691 2.426 -0.555 3.814 c 0.141 1.399 0.607 2.884 1.395 4.369 c 0.793 1.49 1.902 2.974 3.322 4.358 c 1.42 1.385 3.006 2.533 4.652 3.421 c 1.641 0.884 3.33 1.506 4.975 1.847 c 1.627 0.338 3.203 0.398 4.627 0.166 c 1.408 -0.229 2.666 -0.746 3.682 -1.562 c 0.361 -0.291 0.682 -0.609 0.957 -0.951 c 0.275 -0.341 0.51 -0.706 0.703 -1.091 c 0.146 -0.289 0.262 -0.593 0.361 -0.905 C 80.496 30.592 77.885 36.5 74.102 40.817 z M 60.08 51.083 l 2.701 2.253 l 0.107 0.904 l -3.363 -2.78 c -1.207 0.653 -2.541 1.351 -4.033 2.104 c -0.053 0.028 -0.109 0.057 -0.164 0.083 c -0.92 0.463 -1.949 0.742 -3.039 0.846 c -1.098 0.104 -2.255 0.028 -3.417 -0.22 c -1.167 -0.251 -2.339 -0.676 -3.456 -1.271 c -1.12 -0.598 -2.184 -1.361 -3.134 -2.285 c -0.65 -0.631 -1.209 -1.301 -1.675 -1.99 c -0.466 -0.691 -0.839 -1.4 -1.117 -2.116 c -0.278 -0.712 -0.463 -1.43 -0.553 -2.134 c -0.09 -0.703 -0.087 -1.394 0.009 -2.057 c 0 0 0.018 -0.164 0.191 -1.309 l -8.78 -2.492 l 0.772 -0.54 l 8.223 2.32 l 0.427 -2.308 c 0.307 -1.661 0.846 -4.304 1.634 -7.21 c -0.015 0.327 -0.02 0.655 -0.005 0.988 c 0.052 1.157 0.282 2.354 0.692 3.558 c 0.412 1.211 1.004 2.427 1.775 3.613 c 0.772 1.191 1.722 2.35 2.846 3.442 c 1.585 1.542 3.365 2.807 5.229 3.776 c 1.855 0.963 3.787 1.63 5.684 1.983 c 1.883 0.352 3.727 0.395 5.43 0.123 c 1.133 -0.182 2.203 -0.508 3.182 -0.974 c -1.357 0.901 -2.586 1.638 -3.5 2.164 L 60.08 51.083 z M 47.288 64.107 l -0.014 0.088 l -0.609 4.064 L 36.042 81.291 l -1.089 -0.057 l 0.014 -0.084 L 45.45 68.247 l 1.922 -12.803 l 1.219 -0.016 l -1.293 8.612 L 47.288 64.107 z M 37.886 53.104 c 0.059 0.362 0.164 0.727 0.311 1.087 c 0.148 0.358 0.34 0.715 0.577 1.06 s 0.517 0.678 0.841 0.993 c 0.482 0.468 1.022 0.857 1.592 1.164 c 0.509 0.272 1.042 0.474 1.579 0.611 c -0.761 0.403 -1.552 0.809 -2.336 1.188 c -0.847 0.41 -1.782 0.859 -2.451 0.94 l -0.149 0.985 c -0.006 0.002 -0.01 0.002 -0.016 0.003 c -0.157 0.042 -0.17 0.043 -0.184 0.043 c -0.091 -0.029 -0.103 -0.038 -0.114 -0.05 c -0.041 -0.07 -0.043 -0.077 -0.043 -0.086 l -0.035 -0.604 c -0.009 -0.57 -0.006 -1.191 0.008 -1.852 c 0.04 -1.897 0.172 -4.134 0.374 -6.513 C 37.814 52.411 37.828 52.756 37.886 53.104 z M 37.831 61.263 C 37.831 61.263 37.831 61.263 37.831 61.263 L 37.831 61.263 C 37.831 61.263 37.831 61.263 37.831 61.263 z M 79.975 11.564 c 0.01 0.122 0.014 0.243 0.008 0.36 c -0.018 0.361 -0.102 0.698 -0.254 0.998 c -0.154 0.301 -0.469 0.646 -0.674 0.776 c -0.203 0.13 -0.869 0.445 -1.404 0.502 c -0.535 0.058 -1.127 0.006 -1.736 -0.146 s -1.238 -0.405 -1.846 -0.75 c -0.609 -0.345 -1.199 -0.782 -1.729 -1.301 c -0.531 -0.519 -0.953 -1.069 -1.26 -1.62 c -0.307 -0.55 -0.5 -1.099 -0.574 -1.616 c -0.074 -0.515 -0.029 -0.998 0.135 -1.418 c 0.166 -0.418 0.451 -0.774 0.861 -1.037 c 0.176 -0.113 0.367 -0.205 0.574 -0.276 c 0.129 -0.044 0.266 -0.078 0.404 -0.106 c 1.875 0.125 3.504 0.59 5.047 1.441 C 78.117 7.835 79.115 9.32 79.975 11.564 z" style="stroke: rgb(0,0,0); stroke-width: 1; stroke-dasharray: none; stroke-linecap: butt; stroke-linejoin: miter; stroke-miterlimit: 10; fill: rgb(0,0,0); fill-rule: nonzero; opacity: 1;" transform=" matrix(1 0 0 1 0 0) " stroke-linecap="round" />
	<path d="M 40.678 60.006 c -1.095 1.495 -1.471 3.526 -2.074 5.343 c -0.541 1.634 -1.076 3.269 -1.659 4.88 c -1.086 3.004 -2.436 6.844 -4.746 8.973 c 0.181 -0.539 0.428 -1.05 0.691 -1.539 c 0.309 -0.572 -0.036 -1.893 -0.701 -1.218 c -2.641 2.679 -4.601 6.147 -7.111 8.985 c -1.433 1.618 -2.953 3.107 -4.447 4.635 c 0.595 -1.313 1.177 -2.638 1.734 -3.976 c 1.186 -2.851 2.114 -5.841 3.328 -8.673 c 2.206 -5.138 5.464 -9.669 9.235 -13.313 c 0.42 -0.406 0.292 -1.723 -0.407 -1.558 c -0.661 0.157 -1.315 0.57 -1.981 0.825 c 1.255 -1.546 2.76 -3.214 4.318 -3.549 c 0.323 -0.069 0.518 -0.749 0.073 -0.757 c -2.375 -0.05 -4.703 2.972 -6.28 4.709 c -0.274 0.303 -0.297 1.186 0.163 1.308 c 0.378 0.101 0.737 0.107 1.086 0.06 c -2.708 3.028 -5.037 6.506 -6.892 10.331 c -1.323 2.729 -2.205 5.731 -3.34 8.571 c -1.346 3.367 -2.904 6.629 -4.456 9.867 c -0.372 0.776 0.515 2.046 1.083 1.158 c 2.056 -3.217 4.946 -5.542 7.428 -8.267 c 1.879 -2.062 3.403 -4.522 5.131 -6.753 c -0.036 0.258 -0.064 0.52 -0.073 0.789 c -0.014 0.42 0.334 0.94 0.721 0.699 c 2.887 -1.802 4.513 -5.695 5.834 -9.032 c 1.555 -3.928 2.941 -8.115 4.07 -12.232 C 41.578 59.646 40.918 59.676 40.678 60.006 z" style="stroke: rgb(0,0,0); stroke-width: 1; stroke-dasharray: none; stroke-linecap: butt; stroke-linejoin: miter; stroke-miterlimit: 10; fill: rgb(0,0,0); fill-rule: nonzero; opacity: 1;" transform=" matrix(1 0 0 1 0 0) " stroke-linecap="round" />
</g>
</g>
</g>
</svg>